<svg width="78" height="92" viewBox="0 0 78 92" fill="none" xmlns="http://www.w3.org/2000/svg">
<path d="M13.2298 3.11807C16.2606 2.53302 20.3348 1.24257 23.3707 2.01594C24.7007 2.23574 25.7601 2.50882 27.0201 3.03843C35.3946 6.25742 41.6356 12.9494 49.5295 16.9885C50.6236 17.5483 51.7141 18.1353 52.8575 18.5888C54.5379 19.2739 56.0476 19.6129 57.8077 20.012C58.1434 20.1051 60.1496 20.4179 60.4914 20.4377C60.885 20.2658 61.7429 19.5978 62.1374 19.3047C63.797 18.0716 64.8942 17.8017 66.8901 17.3769C69.2696 16.8629 73.34 15.6321 75.5716 15.946C76.1466 16.1028 76.683 16.2848 77.1012 16.7535C77.6458 17.6508 77.6039 18.0277 77.3304 18.9987C77.0197 20.0992 76.3844 21.0646 76.0134 22.1274C75.1008 24.7412 74.676 27.5636 74.5668 30.3255C74.4332 37.2141 76.1249 44.1916 76.7858 51.0363C76.9762 53.0089 77.22 55.6493 77.2337 57.5697C77.2505 59.9885 76.8132 62.9663 76.4583 65.3578C75.2606 73.4356 72.0387 80.5266 64.7615 84.8486C63.4126 85.6492 62.3682 86.1862 60.8292 86.6684C58.947 87.3981 56.8115 87.9427 54.8564 88.4934C50.4879 89.8615 46.6952 91.0269 42.0218 90.8829C40.6848 90.9111 39.1579 90.5546 37.8562 90.5463C33.1971 90.5196 29.8124 89.4235 25.5744 87.6746L21.5629 86.0544C13.497 82.7242 5.90489 77.4988 2.46845 69.125C0.466712 64.2469 0.260729 58.9375 0.428388 53.6992C0.535449 50.3542 2.05696 46.6011 3.10743 43.4754C4.21122 40.191 5.5042 36.9115 6.93037 33.747C7.63569 32.2107 8.56667 30.5159 9.19745 28.989C8.91051 28.2921 7.78636 26.6768 7.33426 25.9986C5.56434 23.3436 3.78185 20.2811 3.11354 17.1282C2.46459 14.0667 3.06911 9.81825 4.84601 7.19188C6.99089 4.02156 9.8804 3.80198 13.2298 3.11807Z" fill="#D59649"/>
<path d="M66.8901 17.3769C69.2695 16.8629 73.34 15.6321 75.5716 15.946C76.1466 16.1028 76.683 16.2848 77.1012 16.7535C77.6458 17.6508 77.6039 18.0277 77.3304 18.9987C77.0197 20.0992 76.3844 21.0646 76.0133 22.1274C75.1008 24.7412 74.676 27.5636 74.5668 30.3255C74.4332 37.2142 76.1249 44.1916 76.7858 51.0363C76.9762 53.0089 77.22 55.6493 77.2337 57.5697C77.2505 59.9886 76.8132 62.9663 76.4583 65.3578C75.2605 73.4356 72.0387 80.5266 64.7615 84.8486C63.4126 85.6492 62.3682 86.1862 60.8292 86.6684C58.947 87.3981 56.8115 87.9427 54.8564 88.4934C54.8571 88.4211 54.8799 88.1392 54.9484 88.1042C55.5582 87.7934 56.1647 87.4705 56.7566 87.1269C57.8473 86.4993 58.8821 85.7787 59.8495 84.9735C66.0958 79.5684 68.028 72.6751 68.8341 64.7187C69.012 63.0845 69.2379 61.3482 69.2335 59.7049C69.2293 58.137 69.0135 56.4683 68.9149 54.8989C68.2727 44.6684 64.5075 34.0128 68.0893 23.9524C68.4387 22.9714 69.0068 22.0047 69.3406 21.0174L69.3642 20.9464C69.5506 20.4551 69.5784 20.3104 69.4808 19.7948C69.5265 19.048 69.2059 18.9916 69.3294 18.5605L69.6686 18.4616C69.6165 18.4602 69.5755 18.4581 69.5231 18.4529L69.4625 18.4465C69.164 18.4168 68.7935 18.0169 68.3124 17.8091C67.867 17.7583 67.4472 17.6347 67.0253 17.5989L66.8901 17.3769Z" fill="#CCA279"/>
<path d="M66.8901 17.3769C69.2696 16.8629 73.34 15.6321 75.5716 15.946C76.1466 16.1028 76.683 16.2848 77.1012 16.7535C75.495 17.0767 73.8752 17.4521 72.2827 17.8423C71.5757 18.0154 70.3136 18.2492 69.6686 18.4616C69.6165 18.4602 69.5755 18.4581 69.5231 18.4529L69.4625 18.4465C69.164 18.4168 68.7935 18.0169 68.3124 17.8091C67.867 17.7583 67.4472 17.6347 67.0253 17.5989L66.8901 17.3769Z" fill="#BF7B3B"/>
<path d="M66.8901 17.3769C69.2696 16.8629 73.34 15.6321 75.5716 15.946C74.8667 16.6344 69.4191 17.2328 68.3124 17.8091C67.867 17.7583 67.4472 17.6347 67.0253 17.5989L66.8901 17.3769Z" fill="#B49B88"/>
<path d="M59.8495 84.9735L59.8659 85.1007C59.2287 85.7002 57.3861 86.9365 56.5885 87.3866L56.6389 87.4666C57.8544 87.5192 60.049 86.1191 60.8292 86.6683C58.947 87.3981 56.8115 87.9427 54.8564 88.4934C54.8571 88.421 54.8799 88.1392 54.9484 88.1042C55.5582 87.7934 56.1647 87.4704 56.7566 87.1269C57.8473 86.4992 58.8821 85.7786 59.8495 84.9735Z" fill="#B49B88"/>
<path d="M13.2298 3.11807C16.2606 2.53302 20.3348 1.24257 23.3707 2.01594C24.7007 2.23574 25.7601 2.50882 27.0201 3.03843C35.3946 6.25742 41.6356 12.9494 49.5295 16.9885C50.6236 17.5483 51.7141 18.1353 52.8575 18.5888C52.3704 18.9512 51.5396 18.942 51.0382 19.1462C49.7891 19.6549 46.3752 19.9276 45.4006 20.6052C45.0065 20.5205 43.4205 19.7506 43.0084 19.5251C41.4669 18.6075 39.5516 17.8017 38.0885 16.8051C33.9336 13.9748 29.8939 10.9235 25.6909 8.16684C23.6338 6.81768 21.4137 5.76706 19.1718 4.78138C18.1469 4.33387 17.8185 4.21139 16.7235 4.02508C16.4063 4.0284 16.0031 3.84989 15.7351 3.68162C14.7811 3.59922 13.9973 3.65204 13.2298 3.11807Z" fill="#AC7535"/>
<path d="M13.2298 3.11807C16.2606 2.53302 20.3348 1.24257 23.3707 2.01594C24.7007 2.23574 25.7601 2.50882 27.0201 3.03843C26.4994 3.40331 19.9953 4.70051 19.1718 4.78138C18.1469 4.33387 17.8185 4.21139 16.7235 4.02508C16.4063 4.0284 16.0031 3.84989 15.7351 3.68162C14.7811 3.59922 13.9973 3.65204 13.2298 3.11807Z" fill="#9F7E64"/>
<path d="M13.2298 3.11807C16.2606 2.53302 20.3348 1.24257 23.3707 2.01594C22.8591 2.29537 22.0693 2.41006 21.4831 2.52172L21.6937 2.66448L21.6916 2.76343C21.178 3.09254 18.9417 3.47541 18.2393 3.59425C18.0402 3.62791 17.347 3.64269 17.2552 3.69491L17.3564 3.81153C17.1688 3.93491 16.9428 3.97266 16.7235 4.02508C16.4063 4.0284 16.0031 3.84989 15.7351 3.68162C14.7811 3.59922 13.9973 3.65204 13.2298 3.11807Z" fill="#B49B88"/>
<path d="M15.7351 3.68162C16.5783 3.65637 20.4366 2.75925 21.4831 2.52173L21.6937 2.66448L21.6916 2.76344C21.178 3.09255 18.9417 3.47542 18.2393 3.59425C18.0402 3.62792 17.347 3.6427 17.2552 3.69491L17.3564 3.81153C17.1688 3.93491 16.9428 3.97267 16.7235 4.02509C16.4063 4.02841 16.0031 3.8499 15.7351 3.68162Z" fill="#99755D"/>
<path d="M52.8575 18.5889C54.5379 19.274 56.0476 19.6129 57.8078 20.012C57.2638 20.4341 51.7779 21.4599 50.5727 21.8525C49.834 22.1069 46.2532 20.947 45.4006 20.6052C46.3752 19.9276 49.7891 19.6549 51.0382 19.1462C51.5396 18.942 52.3704 18.9512 52.8575 18.5889Z" fill="#99755D"/>
<path d="M57.8078 20.012C58.1434 20.1051 60.1497 20.4179 60.4914 20.4377C60.3299 21.1512 58.2243 22.1295 57.535 22.2015C55.8643 22.3763 52.0156 22.564 50.5727 21.8525C51.7779 21.4598 57.2638 20.434 57.8078 20.012Z" fill="#B9A38A"/>
<path d="M67.0253 17.5989C67.4472 17.6347 67.867 17.7583 68.3124 17.8091C68.7935 18.0168 69.164 18.4167 69.4625 18.4464L69.5231 18.4529C69.5755 18.4581 69.6165 18.4602 69.6686 18.4616L69.3294 18.5605C69.2059 18.9915 69.5265 19.048 69.4808 19.7948C69.1175 19.3776 68.4172 18.4784 67.8883 18.582C67.8266 17.9171 67.2181 17.9426 67.0253 17.5989Z" fill="#D08D4E"/>
<path d="M67.8883 18.582C68.4172 18.4784 69.1175 19.3776 69.4808 19.7948C69.5784 20.3104 69.5506 20.4551 69.3642 20.9464L69.23 20.9038C69.0484 20.4288 68.0391 18.9675 67.8883 18.582Z" fill="#BF7B3B"/>
<path d="M43.3186 20.4954C43.4976 20.4624 45.3859 21.1958 45.6848 21.349C46.8205 21.9309 49.2061 21.9998 50.213 22.4604C49.2669 22.7065 43.7447 21.2755 43.3186 20.4954Z" fill="#E0BA87"/>
<path d="M36.5669 16.8345C36.8817 16.8386 40.6273 19.1511 41.2983 19.3719C41.4242 19.4133 41.6912 19.6589 41.774 19.7876C41.0182 19.6096 36.7872 17.4214 36.5669 16.8345Z" fill="#E0BA87"/>
<path d="M14.2617 4.13165L14.3377 4.12662C15.4557 4.05791 18.896 5.15197 19.6966 5.85761C18.7734 5.66955 17.5473 5.15469 16.607 4.8677C15.9416 4.66462 14.8483 4.3927 14.2617 4.13165Z" fill="#E0BA87"/>
<path d="M20.2722 6.17618C21.0956 6.14804 23.7866 7.87171 24.4759 8.45732C23.8208 8.37985 21.0715 6.60296 20.2722 6.17618Z" fill="#E0BA87"/>
</svg>
